<?xml version="1.0" encoding="utf-8"?>
<!-- Generator: Adobe Illustrator 22.1.0, SVG Export Plug-In . SVG Version: 6.00 Build 0)  -->
<svg version="1.1" id="Layer_1" xmlns="http://www.w3.org/2000/svg" xmlns:xlink="http://www.w3.org/1999/xlink" x="0px" y="0px"
	 viewBox="0 0 428 72" style="enable-background:new 0 0 428 72;" xml:space="preserve">
<style type="text/css">
	.st0{enable-background:new    ;}
	.st1{fill:#006D58;}
</style>
<g class="st0">
	<path class="st1" d="M0.6,4.9h4.4v24.6H0.6V4.9z"/>
	<path class="st1" d="M9.3,11h3.9v1.6h0.2c1.6-1.1,3.8-1.9,6.1-1.9c3.5,0,5.4,1.5,5.4,5.1v13.7h-4V16.7c0-1.9-0.6-2.7-3.2-2.7
		c-1.4,0-3.1,0.5-4.2,1v14.4h-4V11z"/>
	<path class="st1" d="M29.6,24.9V14.2h-2.5V11h2.5V6.7h4V11H38v3.1h-4.4v10.2c0,1.6,0.6,2.2,2.5,2.2c0.7,0,1.5-0.1,2.2-0.2v2.7
		c-0.7,0.4-1.7,0.8-3.4,0.8C31.7,29.7,29.6,28.4,29.6,24.9z"/>
	<path class="st1" d="M39.9,20.5V20c0-6.2,3.8-9.3,8.4-9.3c5.4,0,7.8,3.1,7.8,8.9v1.7h-12c0.2,3.9,2.2,5.2,5.7,5.2
		c2.4,0,4-0.5,5.7-1.3V28c-1.2,0.8-3.4,1.7-6.5,1.7C43,29.8,39.9,26.3,39.9,20.5z M44.1,18.6H52c0-3.5-1.3-4.9-3.8-4.9
		C46.4,13.7,44.4,14.7,44.1,18.6z"/>
	<path class="st1" d="M59,3.2h4v26.2h-4V3.2z"/>
	<path class="st1" d="M67.1,3.2h4v26.2h-4V3.2z"/>
	<path class="st1" d="M75.2,4.2h4.1v3.7h-4.1V4.2z M75.2,11h4v18.4h-4V11z"/>
	<path class="st1" d="M81.5,31.9c0-1.9,1.5-3.2,3.4-3.9v-0.2c-1.1-0.4-1.9-1.3-1.9-2.6c0-1.3,0.7-2.6,2.2-3.6
		c-1.4-0.9-2.3-2.4-2.3-4.6v-0.3c0-3.9,3-6.1,7.3-6.1c1,0,2,0.1,2.9,0.3h6.2v2.8h-2.9c0.6,0.7,1,1.7,1,2.8v0.3c0,4-3.1,5.9-7.2,5.9
		c-1.1,0-2.1-0.1-2.9-0.4c-0.4,0.4-0.6,0.9-0.6,1.3c0,0.9,0.5,1.4,1.6,1.4h5.1c3.5,0,6,1.3,6,4.9c0,3.6-2.8,6.3-9.2,6.3
		C84.2,36.5,81.5,34.7,81.5,31.9z M95.1,30.8c0-1.5-0.7-2-2.9-2h-4.8c-1.1,0.4-1.9,1.2-1.9,2.5c0,1.5,1.2,2.3,4.5,2.3
		C93.8,33.6,95.1,32.5,95.1,30.8z M93.4,17.1v-0.5c0-2.3-1.3-3.2-3.3-3.2c-2.1,0-3.3,1.1-3.3,3.1V17c0,2.2,1.3,3.1,3.3,3.1
		C92.2,20.1,93.4,19.2,93.4,17.1z"/>
	<path class="st1" d="M100.1,20.5V20c0-6.2,3.8-9.3,8.4-9.3c5.4,0,7.8,3.1,7.8,8.9v1.7h-12c0.2,3.9,2.2,5.2,5.7,5.2
		c2.4,0,4-0.5,5.7-1.3V28c-1.2,0.8-3.4,1.7-6.5,1.7C103.2,29.8,100.1,26.3,100.1,20.5z M104.3,18.6h7.9c0-3.5-1.3-4.9-3.8-4.9
		C106.6,13.7,104.6,14.7,104.3,18.6z"/>
	<path class="st1" d="M119.1,11h3.9v1.6h0.2c1.6-1.1,3.8-1.9,6.1-1.9c3.5,0,5.4,1.5,5.4,5.1v13.7h-4V16.7c0-1.9-0.6-2.7-3.2-2.7
		c-1.4,0-3.1,0.5-4.2,1v14.4h-4V11z"/>
	<path class="st1" d="M139.4,24.9V14.2h-2.5V11h2.5V6.7h4V11h4.4v3.1h-4.4v10.2c0,1.6,0.6,2.2,2.5,2.2c0.7,0,1.5-0.1,2.2-0.2v2.7
		c-0.7,0.4-1.7,0.8-3.4,0.8C141.5,29.7,139.4,28.4,139.4,24.9z"/>
	<path class="st1" d="M157.6,4.9h8c7.5,0,11.8,3.6,11.8,11.6v0.7c0,7.9-3.9,12.2-11.7,12.2h-8.1V4.9z M165.7,26
		c4.9,0,7.1-2.4,7.1-8.4v-1.2c0-6.2-2.7-8.2-7.4-8.2h-3.4V26H165.7z"/>
	<path class="st1" d="M178.9,24.5c0-3.4,2.3-5,5.9-5.5l4.4-0.5v-1.5c0-2.5-1.1-3.1-4.3-3.1c-1.8,0-3.4,0.3-4.5,0.5v-2.8
		c1.7-0.7,3.7-1,6.1-1c4.2,0,6.7,1.7,6.7,5.5v13.3h-3.3l-0.4-1.5h-0.2c-0.9,1.1-2.3,1.8-4.7,1.8C181.3,29.8,178.9,28.1,178.9,24.5z
		 M189.2,25.8v-4.6l-3.5,0.4c-1.9,0.2-2.8,0.9-2.8,2.8c0,1.8,1.2,2.6,2.9,2.6C187.2,26.9,188.6,26.5,189.2,25.8z"/>
	<path class="st1" d="M198,24.9V14.2h-2.5V11h2.5V6.7h4V11h4.4v3.1h-4.4v10.2c0,1.6,0.6,2.2,2.5,2.2c0.7,0,1.5-0.1,2.2-0.2v2.7
		c-0.7,0.4-1.7,0.8-3.4,0.8C200.1,29.7,198,28.4,198,24.9z"/>
	<path class="st1" d="M208.3,24.5c0-3.4,2.3-5,5.9-5.5l4.4-0.5v-1.5c0-2.5-1.1-3.1-4.3-3.1c-1.8,0-3.4,0.3-4.5,0.5v-2.8
		c1.7-0.7,3.7-1,6.1-1c4.2,0,6.7,1.7,6.7,5.5v13.3h-3.3l-0.4-1.5h-0.2c-0.9,1.1-2.3,1.8-4.7,1.8C210.7,29.8,208.3,28.1,208.3,24.5z
		 M218.6,25.8v-4.6l-3.5,0.4c-1.9,0.2-2.8,0.9-2.8,2.8c0,1.8,1.2,2.6,2.9,2.6C216.6,26.9,218,26.5,218.6,25.8z"/>
	<path class="st1" d="M233.2,4.9h6.1l6.1,18.7h0.1l6.1-18.7h6v24.6h-4.3V10.3h-0.1l-6.2,19.2h-3.6l-6.2-19.2H237v19.2h-3.8V4.9z"/>
	<path class="st1" d="M260.8,24.5c0-3.4,2.3-5,5.9-5.5l4.4-0.5v-1.5c0-2.5-1.1-3.1-4.3-3.1c-1.8,0-3.4,0.3-4.5,0.5v-2.8
		c1.7-0.7,3.7-1,6.1-1c4.2,0,6.7,1.7,6.7,5.5v13.3h-3.3l-0.4-1.5h-0.2c-0.9,1.1-2.3,1.8-4.7,1.8C263.2,29.8,260.8,28.1,260.8,24.5z
		 M271.1,25.8v-4.6l-3.5,0.4c-1.9,0.2-2.8,0.9-2.8,2.8c0,1.8,1.2,2.6,2.9,2.6C269.1,26.9,270.4,26.5,271.1,25.8z"/>
	<path class="st1" d="M278.9,11h3.9v1.6h0.2c1.6-1.1,3.8-1.9,6.1-1.9c3.5,0,5.4,1.5,5.4,5.1v13.7h-4V16.7c0-1.9-0.6-2.7-3.2-2.7
		c-1.4,0-3.1,0.5-4.2,1v14.4h-4V11z"/>
	<path class="st1" d="M297,24.5c0-3.4,2.3-5,5.9-5.5l4.4-0.5v-1.5c0-2.5-1.1-3.1-4.3-3.1c-1.8,0-3.4,0.3-4.5,0.5v-2.8
		c1.7-0.7,3.7-1,6.1-1c4.2,0,6.7,1.7,6.7,5.5v13.3H308l-0.4-1.5h-0.2c-0.9,1.1-2.3,1.8-4.7,1.8C299.4,29.8,297,28.1,297,24.5z
		 M307.3,25.8v-4.6l-3.5,0.4c-1.9,0.2-2.8,0.9-2.8,2.8c0,1.8,1.2,2.6,2.9,2.6C305.3,26.9,306.7,26.5,307.3,25.8z"/>
	<path class="st1" d="M313.2,31.9c0-1.9,1.5-3.2,3.4-3.9v-0.2c-1.1-0.4-1.9-1.3-1.9-2.6c0-1.3,0.7-2.6,2.2-3.6
		c-1.4-0.9-2.3-2.4-2.3-4.6v-0.3c0-3.9,3-6.1,7.3-6.1c1,0,2,0.1,2.9,0.3h6.2v2.8h-2.9c0.6,0.7,1,1.7,1,2.8v0.3c0,4-3.1,5.9-7.2,5.9
		c-1.1,0-2.1-0.1-2.9-0.4c-0.4,0.4-0.6,0.9-0.6,1.3c0,0.9,0.5,1.4,1.6,1.4h5.1c3.5,0,6,1.3,6,4.9c0,3.6-2.8,6.3-9.2,6.3
		C315.9,36.5,313.2,34.7,313.2,31.9z M326.8,30.8c0-1.5-0.7-2-2.9-2h-4.8c-1.1,0.4-1.9,1.2-1.9,2.5c0,1.5,1.2,2.3,4.5,2.3
		C325.5,33.6,326.8,32.5,326.8,30.8z M325.2,17.1v-0.5c0-2.3-1.3-3.2-3.3-3.2c-2.1,0-3.3,1.1-3.3,3.1V17c0,2.2,1.3,3.1,3.3,3.1
		C323.9,20.1,325.2,19.2,325.2,17.1z"/>
	<path class="st1" d="M331.8,20.5V20c0-6.2,3.8-9.3,8.4-9.3c5.4,0,7.8,3.1,7.8,8.9v1.7h-12c0.2,3.9,2.2,5.2,5.7,5.2
		c2.4,0,4-0.5,5.7-1.3V28c-1.2,0.8-3.4,1.7-6.5,1.7C334.9,29.8,331.8,26.3,331.8,20.5z M336,18.6h7.9c0-3.5-1.3-4.9-3.8-4.9
		C338.3,13.7,336.3,14.7,336,18.6z"/>
	<path class="st1" d="M350.8,11h3.9v1.6h0.2c1.6-1.1,3.5-1.9,5.6-1.9c2.1,0,3.5,0.6,4.4,2.1h0.2c1.9-1.3,4-2.1,6.1-2.1
		c3.2,0,5.1,1.5,5.1,5v13.7h-4.1V16.7c0-1.9-0.7-2.7-2.8-2.7c-1.2,0-2.5,0.4-3.9,1.1c0,0.3,0.1,0.5,0.1,0.9v13.5h-4V16.7
		c0-1.9-0.7-2.7-2.8-2.7c-1.3,0-2.7,0.5-3.8,1v14.4h-4V11z"/>
	<path class="st1" d="M378.9,20.5V20c0-6.2,3.8-9.3,8.4-9.3c5.4,0,7.8,3.1,7.8,8.9v1.7h-12c0.2,3.9,2.2,5.2,5.7,5.2
		c2.4,0,4-0.5,5.7-1.3V28c-1.2,0.8-3.4,1.7-6.5,1.7C382,29.8,378.9,26.3,378.9,20.5z M383.1,18.6h7.9c0-3.5-1.3-4.9-3.8-4.9
		C385.4,13.7,383.4,14.7,383.1,18.6z"/>
	<path class="st1" d="M397.9,11h3.9v1.6h0.2c1.6-1.1,3.8-1.9,6.1-1.9c3.5,0,5.4,1.5,5.4,5.1v13.7h-4V16.7c0-1.9-0.6-2.7-3.2-2.7
		c-1.4,0-3.1,0.5-4.2,1v14.4h-4V11z"/>
	<path class="st1" d="M418.2,24.9V14.2h-2.5V11h2.5V6.7h4V11h4.4v3.1h-4.4v10.2c0,1.6,0.6,2.2,2.5,2.2c0.7,0,1.5-0.1,2.2-0.2v2.7
		c-0.7,0.4-1.7,0.8-3.4,0.8C420.3,29.7,418.2,28.4,418.2,24.9z"/>
</g>
<g class="st0">
	<path class="st1" d="M14.7,52.1h-2.1v-2.5h2.1v-1.9c0-3.2,2-4.6,4.8-4.6c1.3,0,2.2,0.3,2.7,0.5v2.2c-0.4-0.1-1-0.2-1.9-0.2
		c-1.6,0-2.4,0.7-2.4,2.5v1.6h3.2v2.5H18v12.1h-3.2V52.1z"/>
	<path class="st1" d="M22.2,57.3v-0.5c0-4.7,2.8-7.4,7-7.4c4.4,0,6.9,2.7,6.9,7.3v0.4c0,4.7-2.8,7.4-6.9,7.4
		C24.7,64.6,22.2,61.8,22.2,57.3z M32.8,57.4v-0.7c0-3.8-1.6-4.8-3.6-4.8c-2.3,0-3.6,1.6-3.6,4.7v0.7c0,3.8,1.6,4.8,3.7,4.8
		C31.4,62.1,32.8,60.6,32.8,57.4z"/>
	<path class="st1" d="M38.5,49.6h3.1v1.7h0.1c0.8-1,2.3-1.8,3.9-1.8c0.4,0,0.8,0.1,0.9,0.1v2.8c-0.4-0.1-0.8-0.1-1.2-0.1
		c-1.4,0-2.6,0.4-3.6,1v10.9h-3.2V49.6z"/>
	<path class="st1" d="M54.4,60.7v-8.6h-2v-2.5h2v-3.5h3.2v3.5h3.5v2.5h-3.5v8.1c0,1.3,0.5,1.7,2,1.7c0.6,0,1.2-0.1,1.7-0.2v2.1
		c-0.6,0.3-1.4,0.6-2.7,0.6C56.1,64.5,54.4,63.5,54.4,60.7z"/>
	<path class="st1" d="M63.6,43.4h3.2v7.4H67c1.2-0.9,2.9-1.5,4.7-1.5c2.8,0,4.3,1.2,4.3,4v10.9h-3.2V54.2c0-1.5-0.5-2.1-2.5-2.1
		c-1.1,0-2.5,0.4-3.4,0.8v11.4h-3.2V43.4z"/>
	<path class="st1" d="M78.2,57.1v-0.4c0-4.9,3-7.4,6.7-7.4c4.3,0,6.2,2.5,6.2,7.1v1.4h-9.6c0.2,3.1,1.8,4.1,4.6,4.1
		c1.9,0,3.2-0.4,4.5-1v2.2c-1,0.6-2.7,1.4-5.2,1.4C80.7,64.6,78.2,61.8,78.2,57.1z M81.6,55.6h6.3c0-2.8-1-3.9-3-3.9
		C83.4,51.8,81.8,52.6,81.6,55.6z"/>
	<path class="st1" d="M99,44.7h3.4v8.1h8.4v-8.1h3.4v19.5h-3.4v-8.7h-8.4v8.7H99V44.7z"/>
	<path class="st1" d="M117.3,69.4v-2.2c0.4,0.1,0.9,0.1,1.4,0.1c1.4,0,2.2-0.6,2.8-2l0.6-1.4l-5.6-14.3h3.4l3.7,10.3h0.1l3.5-10.3
		h3.1l-5.9,16.3c-1,2.8-2.4,4-5,4C118.7,69.9,117.7,69.7,117.3,69.4z"/>
	<path class="st1" d="M132.1,49.6h3.1v1.2h0.1c0.9-0.8,2.4-1.5,4.2-1.5c3.1,0,5.8,1.8,5.8,7.1v0.4c0,5.5-2.6,7.7-6.6,7.7
		c-1.6,0-2.7-0.4-3.4-0.8v6h-3.2V49.6z M142.1,57.3v-0.6c0-3.7-1.3-4.7-3.6-4.7c-1.4,0-2.6,0.5-3.1,0.9v8.4c0.6,0.5,1.7,0.8,3,0.8
		C140.7,62.1,142.1,60.9,142.1,57.3z"/>
	<path class="st1" d="M147,57.1v-0.4c0-4.9,3-7.4,6.7-7.4c4.3,0,6.2,2.5,6.2,7.1v1.4h-9.6c0.2,3.1,1.8,4.1,4.6,4.1
		c1.9,0,3.2-0.4,4.5-1v2.2c-1,0.6-2.7,1.4-5.2,1.4C149.4,64.6,147,61.8,147,57.1z M150.3,55.6h6.3c0-2.8-1-3.9-3-3.9
		C152.2,51.8,150.6,52.6,150.3,55.6z"/>
	<path class="st1" d="M162.3,49.6h3.1v1.7h0.1c0.8-1,2.3-1.8,3.9-1.8c0.4,0,0.8,0.1,0.9,0.1v2.8c-0.4-0.1-0.8-0.1-1.2-0.1
		c-1.4,0-2.7,0.4-3.6,1v10.9h-3.2V49.6z"/>
	<path class="st1" d="M171.8,55.1h5.9v2.7h-5.9V55.1z"/>
	<path class="st1" d="M185.6,44.7h3.5l7,19.5h-3.6l-1.8-5h-7.3l-1.7,5h-3.2L185.6,44.7z M184.4,56.7h5.6l-2.8-7.9h-0.1L184.4,56.7z"
		/>
	<path class="st1" d="M195.2,49.6h3.4l3.6,10.8h0.1l3.7-10.8h3.1l-5.3,14.6h-3.3L195.2,49.6z"/>
	<path class="st1" d="M209.6,60.4c0-2.7,1.8-3.9,4.7-4.3l3.5-0.4v-1.2c0-2-0.9-2.5-3.4-2.5c-1.4,0-2.7,0.2-3.6,0.4v-2.2
		c1.4-0.5,2.9-0.8,4.8-0.8c3.4,0,5.3,1.3,5.3,4.4v10.5h-2.7l-0.3-1.2h-0.2c-0.7,0.8-1.9,1.5-3.8,1.5
		C211.5,64.6,209.6,63.2,209.6,60.4z M217.8,61.4v-3.7L215,58c-1.5,0.1-2.2,0.7-2.2,2.2c0,1.4,0.9,2.1,2.3,2.1
		C216.2,62.3,217.2,61.9,217.8,61.4z"/>
	<path class="st1" d="M224.2,44.2h3.3v2.9h-3.3V44.2z M224.2,49.6h3.2v14.6h-3.2V49.6z"/>
	<path class="st1" d="M230.8,43.4h3.2v20.8h-3.2V43.4z"/>
	<path class="st1" d="M236.5,60.4c0-2.7,1.8-3.9,4.7-4.3l3.5-0.4v-1.2c0-2-0.9-2.5-3.4-2.5c-1.4,0-2.7,0.2-3.6,0.4v-2.2
		c1.4-0.5,2.9-0.8,4.8-0.8c3.4,0,5.3,1.3,5.3,4.4v10.5h-2.7l-0.3-1.2h-0.2c-0.7,0.8-1.9,1.5-3.8,1.5
		C238.3,64.6,236.5,63.2,236.5,60.4z M244.7,61.4v-3.7l-2.8,0.3c-1.5,0.1-2.2,0.7-2.2,2.2c0,1.4,0.9,2.1,2.3,2.1
		C243,62.3,244.1,61.9,244.7,61.4z"/>
	<path class="st1" d="M251,63.8V43.4h3.2v7.2h0.1c1.1-0.7,2.4-1.2,4.3-1.2c2.7,0,5.6,1.7,5.6,7.1v0.4c0,5.1-2.6,7.8-7.6,7.8
		C254.8,64.6,252.4,64.3,251,63.8z M261,57.3v-0.6c0-3.6-1.2-4.7-3.8-4.7c-1.2,0-2.4,0.5-3,0.7v9c0.6,0.2,1.4,0.4,2.7,0.4
		C259.1,62.1,261,61.1,261,57.3z"/>
	<path class="st1" d="M266.8,43.4h3.2v20.8h-3.2V43.4z"/>
	<path class="st1" d="M272.5,57.1v-0.4c0-4.9,3-7.4,6.7-7.4c4.3,0,6.2,2.5,6.2,7.1v1.4h-9.6c0.2,3.1,1.8,4.1,4.6,4.1
		c1.9,0,3.2-0.4,4.5-1v2.2c-1,0.6-2.7,1.4-5.2,1.4C274.9,64.6,272.5,61.8,272.5,57.1z M275.8,55.6h6.3c0-2.8-1-3.9-3-3.9
		C277.6,51.8,276,52.6,275.8,55.6z"/>
	<path class="st1" d="M293.3,44.7h12.2v2.7h-8.8v5.4h6.8v2.7h-6.8v6h8.9v2.7h-12.3V44.7z"/>
	<path class="st1" d="M308.6,49.6h3.1v1.3h0.1c1.2-0.9,3-1.6,4.8-1.6c2.8,0,4.3,1.2,4.3,4v10.9h-3.2V54.2c0-1.5-0.5-2.1-2.5-2.1
		c-1.1,0-2.5,0.4-3.4,0.8v11.4h-3.2V49.6z"/>
	<path class="st1" d="M324.8,60.7v-8.6h-2v-2.5h2v-3.5h3.2v3.5h3.5v2.5h-3.5v8.1c0,1.3,0.5,1.7,2,1.7c0.6,0,1.2-0.1,1.7-0.2v2.1
		c-0.6,0.3-1.4,0.6-2.7,0.6C326.5,64.5,324.8,63.5,324.8,60.7z"/>
	<path class="st1" d="M333.2,57.1v-0.4c0-4.9,3-7.4,6.7-7.4c4.3,0,6.2,2.5,6.2,7.1v1.4h-9.6c0.2,3.1,1.8,4.1,4.6,4.1
		c1.9,0,3.2-0.4,4.5-1v2.2c-1,0.6-2.7,1.4-5.2,1.4C335.6,64.6,333.2,61.8,333.2,57.1z M336.5,55.6h6.3c0-2.8-1-3.9-3-3.9
		C338.4,51.8,336.7,52.6,336.5,55.6z"/>
	<path class="st1" d="M348.4,49.6h3.1v1.7h0.1c0.8-1,2.3-1.8,3.9-1.8c0.4,0,0.8,0.1,0.9,0.1v2.8c-0.4-0.1-0.8-0.1-1.2-0.1
		c-1.4,0-2.7,0.4-3.6,1v10.9h-3.2V49.6z"/>
	<path class="st1" d="M358.4,49.6h3.1v1.2h0.1c0.9-0.8,2.4-1.5,4.2-1.5c3.1,0,5.8,1.8,5.8,7.1v0.4c0,5.5-2.6,7.7-6.6,7.7
		c-1.6,0-2.7-0.4-3.4-0.8v6h-3.2V49.6z M368.4,57.3v-0.6c0-3.7-1.3-4.7-3.6-4.7c-1.4,0-2.6,0.5-3.1,0.9v8.4c0.6,0.5,1.7,0.8,3,0.8
		C367,62.1,368.4,60.9,368.4,57.3z"/>
	<path class="st1" d="M374.2,49.6h3.1v1.7h0.1c0.8-1,2.3-1.8,3.9-1.8c0.4,0,0.8,0.1,0.9,0.1v2.8c-0.4-0.1-0.8-0.1-1.2-0.1
		c-1.4,0-2.6,0.4-3.6,1v10.9h-3.2V49.6z"/>
	<path class="st1" d="M384.2,44.2h3.3v2.9h-3.3V44.2z M384.2,49.6h3.2v14.6h-3.2V49.6z"/>
	<path class="st1" d="M389.9,63.5v-2.4c1.2,0.5,2.3,0.9,4.4,0.9c2.1,0,2.9-0.6,2.9-1.8c0-1.1-0.6-1.5-2.2-1.9l-1.4-0.3
		c-2.3-0.5-3.7-1.6-3.7-4.2c0-2.7,1.7-4.5,5.4-4.5c2,0,3.3,0.4,4.2,0.8v2.4c-0.8-0.3-2.3-0.8-3.9-0.8c-1.7,0-2.7,0.6-2.7,1.7
		c0,1.1,0.6,1.5,2,1.8l1.4,0.3c2.9,0.6,4,1.8,4,4.4c0,3-2.1,4.5-5.6,4.5C392.8,64.5,391.1,64.2,389.9,63.5z"/>
	<path class="st1" d="M401.9,57.1v-0.4c0-4.9,3-7.4,6.7-7.4c4.3,0,6.2,2.5,6.2,7.1v1.4h-9.6c0.2,3.1,1.8,4.1,4.6,4.1
		c1.9,0,3.2-0.4,4.5-1v2.2c-1,0.6-2.7,1.4-5.2,1.4C404.3,64.6,401.9,61.8,401.9,57.1z M405.2,55.6h6.3c0-2.8-1-3.9-3-3.9
		C407,51.8,405.4,52.6,405.2,55.6z"/>
</g>
</svg>
